<svg id="Layer_1" data-name="Layer 1" xmlns="http://www.w3.org/2000/svg" viewBox="0 0 460.36 525"><defs><style>.cls-1{fill:#231f20;}.cls-1,.cls-2{fill-rule:evenodd;}.cls-2{fill:#fff;}</style></defs><title>vys [Converted]</title><path class="cls-1" d="M1264.5,607h-29.72c.24-8.39-.22-15.82-3.71-20.44-11.71-35.6-113-28.35-148.59-16.71-75,24.51-127.69,76-154.15,143-8.36,21.17-12.89,45.23-9.29,76.15,2.38,20.43,10.69,41.27,16.72,50.15,39.28,57.89,104.35,5.49,133.72-24.15,11.43-11.53,12.33-25.17,35.29-26,4.67,7,7.38,7.55,7.43,20.43-33.3,31.92-58.49,69.06-109.58,83.58-13.54,3.84-29.61,1.31-40.86-1.86-76.12-21.43-88.38-126.74-53.86-204.3,34.25-77,119.21-138.54,193.58-150.38C1191.43,522.2,1264.46,536.38,1264.5,607Z" transform="translate(-889.58 -531.5)"/><path class="cls-1" d="M1238.5,620h24.14c-.1,113.59,0,226.19,0,343.6h5.57v53.86c25.2-.26,41.25,4.78,63.15,5.57,5.68,8.23,13.15,13.68,16,18.77,1.87,3.39,2.61,8.09,2.61,14.66H1151.2v-14.86c9.86-6.78,9-9.42,18.58-16.71,9.79-2.38,45.44-7.62,63.14-7.43V963.64h5.58Z" transform="translate(-889.58 -531.5)"/><path class="cls-1" d="M985.9,857.77c25.16-5,45.71-18.55,79.87-50.15.64-.59.89-8.25,1.85-13,2.06-10.14,2.56-15.16,11.15-22.29,14.48-9.24,19.08-5.91,35.29-5.57,11.45,5.35,11.57,7.61,18.57,16.72,3.18,12.5,3.71,17.55,1.86,27.86-6,19.65-24.75,24-35.29,24.14-5.68,9.85-16.1,17.34-24.15,26-23.27,17.55-50.49,40.06-89.15,40.86v5.58h224.74c.76-95.57-2.77-192.89-61.29-226.59-86.28-49.69-146,28.33-156,92.86C991,789,985.9,847.87,985.9,857.77Z" transform="translate(-889.58 -531.5)"/><path class="cls-2" d="M1141.92,703.61c-9.7-9-22.25-15.11-42.72-14.85-15.11-.49-19.8,1.18-26,3.71-4.13,1.68-9.64,4.87-18.58,13,6.23,8.1,11.2,9.68,14.86,14.86,6-5.46,10.3-10.88,29.72-11.14,15.57-.21,19.86,1.17,31.57,9.28C1134.67,713.05,1143.37,704.77,1141.92,703.61Z" transform="translate(-889.58 -531.5)"/><path class="cls-1" d="M971.05,920.92c1.2,3.51,5.22-3.89,5.57,0,1.41,15.86,9.29,38.7,13,44.57,9.1,14.41,16.76,17,26,29.72-9.51,3.23-32,2-44.57,1.86C971.6,980.68,970.55,937.72,971.05,920.92Z" transform="translate(-889.58 -531.5)"/><path class="cls-1" d="M985.9,920.92h224.74C1209.5,1032.45,987.11,1032,985.9,920.92Z" transform="translate(-889.58 -531.5)"/><path class="cls-1" d="M1218.07,922.77h3.71v72.44c-10,3.39-27.81,2-40.86,1.86l-1.86-5.58C1200.49,980.63,1217.5,954.25,1218.07,922.77Z" transform="translate(-889.58 -531.5)"/></svg>