<svg id="Layer_1" data-name="Layer 1" xmlns="http://www.w3.org/2000/svg" viewBox="0 0 747.72 587.35"><defs><style>.cls-1{fill:#231f20;fill-rule:evenodd;}</style></defs><title>ihrisko [Converted]</title><path class="cls-1" d="M1254,507c45.53-.66,72.63,16.28,86,47,23.94,55-16.22,101.42-58,112-47.38,12-84.78-27-94-58-3.29-11-3.51-31.08,0-42,6.83-21.24,19.91-38,37-49C1232.9,511.91,1246.29,512,1254,507Z" transform="translate(-733 -506.98)"/><path class="cls-1" d="M1010,613c13,.26,25.27,6.45,36,10,19.87,6.57,40,9.54,59,17-12,18.81-30.73,33.39-44,51-4.24,5.62-8.52,16-17,17-3.12-2.23-34.58-11.28-35-11-9.36,2.31-17.51,9.4-25,14-14.69,9-29.85,15.74-45,24-11.34,6.18-15.92,13.5-32,10-12.09-19,6.15-29.87,17-41C953,674.26,977.48,639.11,1010,613Z" transform="translate(-733 -506.98)"/><path class="cls-1" d="M1170,630c33.31,1.38,49.51,19.69,56,48,2.87,12.52-7.15,25.62-6,32,.67,3.7,4.6,7.81,6,11,7,16,13.56,31,21,46,3.67,7.38,11.16,33,18,35,6.32,4.16,16.07,3.58,24,6,16.08,4.9,35,9.19,51,14,10.71,3.23,27.34,1.94,31,12,3.38,4.11,1.21,9.37,0,14-2.79,1.82-5.35,5.15-9,6l-8-1h-35c-30.93,0-73.73,5.35-102-2-10.81-19.28-23.39-38.37-35-57-3.86-6.19-6.34-16.82-13-20-6.36,9.7-17.19,16-24,25-12.6,16.76-28.64,30.91-43,46-3.36,3.52-19.58,21.8-19,22,4.57,3.9,11,4.39,17,7,15.81,6.9,33.14,15.09,49,22,7.71,3.36,17.17,3.81,20,12,2.57,3.33,2.24,9.16,0,13-6.52,11.17-15.37,22.14-23,33-24.42,34.74-50.51,69.26-75,104-7.38,10.47-17.77,34.94-33,36-1.5-1.07-4.3-.89-6-2-2.62-1.71-3.84-5.75-6-8-.21-15.61,12.11-33.56,18-45,9.3-18,15.76-36.3,24-55,5.77-13.1,15.26-26.27,19-41-17.58-3.47-36.47-10.53-53-16-21.3-7-42.76-11.32-63-18-11.59-3.83-32.11-3.68-36-15-1.66-2.07-1.91-4.16-2-8,28.33-35.62,58.74-68.74,86-105,14-18.62,33-34.36,47-53,15-20,33.18-37.3,48-57,7.22-9.6,15.34-23,25-30a68.57,68.57,0,0,1,19-9C1161.72,630.88,1167.05,631.83,1170,630Z" transform="translate(-733 -506.98)"/><path class="cls-1" d="M918,917c5.27,1.74,8.89,6.83,14,9,19.22,8.16,40.84,9.55,60,17-3.79,14.72-18.85,34.51-26,48-3.36,6.33-6.25,17.15-12,21l-10,3c-9.54,4-19.7,7.64-30,12-30.68,13-63.41,26-94,39-15.59,6.62-30.53,10.36-46,17-7.73,3.32-17.3,9.23-26,11-11.62,2.37-15.1-8.27-15-19,15-13.7,32.65-23.39,50-35,22.64-15.15,45.36-31.84,68-47,11.15-7.47,22.23-14.79,33-22,3.48-2.33,9.5-3.78,12-7,3.7-4.77,4.47-11.21,7-17C907.24,937.29,913.34,926.91,918,917Z" transform="translate(-733 -506.98)"/><path class="cls-1" d="M1407,933c46.91-.67,87.92,41.55,69,91-8.85,23.15-28.56,37.09-55,43-11.88,2.65-24.94-2-32-5-26.21-11-55.16-42.94-40-84,6.6-17.87,20.61-31.87,37-40Z" transform="translate(-733 -506.98)"/><path class="cls-1" d="M1274,987c13.69-.15,30.38-.71,41,2,4.4,6.92,7.21,16.56-1,22-7.59,6.45-41.27,5-45-3-2.75-2.8-3.11-6.15-3-12C1268.76,993.15,1271.31,989.87,1274,987Z" transform="translate(-733 -506.98)"/><path class="cls-1" d="M1143,1013c28.89-.16,65.69-3.76,91,2,2.93,4.43,5.66,6.52,6,14a18.33,18.33,0,0,0-3,7c-13.23,7.78-51.39,4-72,4-6.56,0-19.47,1.86-24-1-4.51-1.44-5.13-4.16-8-7-.51-7,0-14.81,7-17C1140.77,1014.32,1142.23,1013.69,1143,1013Z" transform="translate(-733 -506.98)"/><path class="cls-1" d="M1249,1040c13.33-.44,57.41-3.12,65,2s7.35,19.78-2,23c-3.8,2.92-12.33,2-19,2-15.47,0-33.14.72-47-1-1.94-2.64-3.79-3.36-5-7-3.25-4-1.19-8.45,0-13A50.63,50.63,0,0,0,1249,1040Z" transform="translate(-733 -506.98)"/></svg>