<svg id="Layer_1" data-name="Layer 1" xmlns="http://www.w3.org/2000/svg" viewBox="0 0 461.13 379.83"><defs><style>.cls-1{fill:#231f20;}.cls-1,.cls-2{fill-rule:evenodd;}.cls-2{fill:#fff;}</style></defs><title>study [Converted]</title><path class="cls-1" d="M1053,820h35c-.32,23.82-3.73,62.62,3,81,3,8.17,9.21,13.82,13,21h-58v62c0,10.74,1,24.29-2,32-5.64,1.91-15.69,1.08-23,1-.77-1.5-1.89-4.57-3-6-2.18,3.17-4.64,3.92-10,4-1.56-1.57-4.71-2.23-6-4-2.49-3.43-3.37-12-7-14H933c-2.16,5-5.67,14.08-11,16-1.92,1.77-3.14,1.9-7,2-2.56-2.39-4.6-2.16-6-6-1.54-2.31-1.12-8.11-1-12-15.15.14-24.56-.77-30-10-4.76-8.08-2-55.65-2-70V738c0-27.35-6.74-77.58,13-85,9-3.37,25.13-1,36-1h88c17.55,0,32.47-.83,37,12,5.93,7.81,3,30.18,3,43Z" transform="translate(-874.89 -651.19)"/><path class="cls-2" d="M904,679c-1.57,1.8-2,1.28-3,4-2.41,3.84-1,14.28-1,20v49c8,4.78,25.39,3,38,3h87c6.94-11.48,3.12-54.77,3-73a17.82,17.82,0,0,1-4-3Z" transform="translate(-874.89 -651.19)"/><path class="cls-1" d="M946,700c10.14-.1,22.48-.69,31,1,1,1.77,1.26,1.68,2,4,1.67,2.64.13,5.38-1,8-7.33,3.31-25.12,2.81-34,1l-1-3c-1.76-2.56-.64-6.19,0-9A10.92,10.92,0,0,0,946,700Z" transform="translate(-874.89 -651.19)"/><path class="cls-1" d="M1120,877c-.51,14.9,4.6,26.37,17,28,8.58-24.06,35.4-17,66-17,9,0,24.41-2,30,2,6.86,2,10.85,8.24,11,17h8c2.3,3.48,4.25,4.52,5,10-1.11,1.38-1.49,2.87-2,5-9.79,4.59-28.63,3.09-43,3a75.21,75.21,0,0,1-1,15l-3,1c-2.81,1.85-10.49,1.13-15,1v46c14.59-.17,29.69-1,38,5,6.43,4.67,9.17,15.44,15,21a56.45,56.45,0,0,1-1,12l-6,5a62.94,62.94,0,0,1-13-1l-5-7c-2.66-8.28,5-12.17,4-16-1.41-4.35-4.29-5.88-10-6-4-2.6-16-1.13-22-1,.1,10.39,5.48,9.92,7,17l-1,8c-5.5,4.31-7,6.22-18,6-1-.8-.27-.35-2-1-2.8-4.35-4.87-6.41-5-14,3.89-4.38,7-7.62,7-16-13.43-.51-30.94-2.23-33,9,4.2,2.82,5.17,6.68,5,14-2.43,2.5-4.65,5.47-7,8a62.94,62.94,0,0,1-13-1l-5-6c-.12-7.7.41-11.33,4-15l3-1c2.47-3.45,1.69-7.84,4-11,7.33-10,24.18-9.38,42-9V942c-6,.09-12.48-.08-17-1l-1-3c-1.64-2.48-1.12-8.9-1-13-68.81.73-60-32.26-60-97,0-21.34-2.85-47.54,1-67,1.77-1,1.68-1.26,4-2,1.69-1.14,4.9-1.07,8-1,5.53,6.06,16.94,8.85,20,17,2.73,7.29,1,20,1,29C1136,829.19,1143.81,875,1120,877Z" transform="translate(-874.89 -651.19)"/><path class="cls-1" d="M1229,779h64c11.24,0,21-1.34,24,7,1.91,2.38,2.06,5.49,2,10-2.59,3.27-2.54,6.38-7,8-4.06,3.49-15.73,2-23,2h-60Z" transform="translate(-874.89 -651.19)"/><path class="cls-2" d="M1019,863V843c-3.09.09-6.33.14-8-1-3.85-1.3-4.48-3.58-7-6V826a51.12,51.12,0,0,0,7-6h17V790l-3-2c-5.82-4.4-23.57-2-33-2-29.36,0-61.29-1.07-89,1-6.88,11.38-3.12,53.93-3,72,.8,1,.35.27,1,2l3,1c6,3.72,23.68,1,32,1Z" transform="translate(-874.89 -651.19)"/><path class="cls-1" d="M947,806c9.2-.27,26.75-2.2,31,3,11.85,14.68-21.7,12.54-33,12-2.14-3.39-3-4.68-3-11A25,25,0,0,0,947,806Z" transform="translate(-874.89 -651.19)"/><path class="cls-1" d="M1149,820h120c20.56,0,46.79-2.27,64,2,5.62,11.11,2.89,14-4,21h-17V957c0,18.9,2.27,41.91-1,59-5.64,1.91-15.69,1.08-23,1a17.82,17.82,0,0,0-3-4V922h-16v-2c4.3-6.83-3.27-19.24-7-22-2.1-1.55-5-1.34-7-3s-1.56-4.91-3-7c-2.62-3.81-9.58-9.14-14-11-7.22-3-19-2-29-2-21.12,0-47.15-2-65,2v-2C1153,867.66,1149.18,835.72,1149,820Z" transform="translate(-874.89 -651.19)"/><path class="cls-2" d="M1019,971V894H929c-9,0-26.08-2.26-29,4v69a25,25,0,0,1,5,4Z" transform="translate(-874.89 -651.19)"/><path class="cls-1" d="M945,913h31c3.22,4.73,4.61,6.73,2,13-4.58,2.14-25.31,4.73-31,1C939.62,924.82,942,917.49,945,913Z" transform="translate(-874.89 -651.19)"/></svg>