<svg id="Layer_1" data-name="Layer 1" xmlns="http://www.w3.org/2000/svg" viewBox="0 0 1007.16 1241.57"><defs><style>.cls-1{fill:#231f20;}.cls-1,.cls-2{fill-rule:evenodd;}.cls-2{fill:#fff;}</style></defs><title>pracka [Converted]</title><path class="cls-1" d="M1601.22,536.4H603.3V472.8c0-10.19-1.19-24.65,1-33.12,4.21-16.61,11.86-30.55,23.76-39.36,8.14-6,17-10.22,28.32-13.2,6.2-1.63,13.87-1.2,21.36-1.2h842.88c7.35,0,14.74-.35,20.88,1.2,11.65,2.95,21,6.76,29.52,12.72,14,9.82,23.39,24.53,28.56,43.2,2.59,9.35,1.68,22.25,1.68,33.84Z" transform="translate(-602.97 -385.87)"/><path class="cls-2" d="M1459.38,403c-1.7,1-4.75.4-6.72,1a79.85,79.85,0,0,0-10.32,3.36c-15,6.57-25.58,19.57-31,35.76-1.06,3.2-1.36,6.7-2.16,10.08-1.49,6.35-.1,17.74,1.44,22.8.79,2.61.94,4.82,1.92,7.2,5.79,14.05,14.53,24.17,27.6,31a65.5,65.5,0,0,0,13,4.8l4.8.48c2,.45,5.65,1,8.16.48,5.88-1.33,11.19-1.35,16.08-3.36a57.38,57.38,0,0,0,31.2-30.48c1.84-4.21,2.85-8.93,4.08-13.68,2.69-10.42-.31-25.91-3.36-33.12C1505.08,417.88,1489.78,403,1459.38,403Z" transform="translate(-602.97 -385.87)"/><path class="cls-2" d="M705.06,428.16c-1.22.74-6.43.87-8.16,1.44-6.49,2.14-12.65,6.26-16.32,11.28a40.12,40.12,0,0,0-5.76,11.28c-1.83,5.68-1.39,14.08.48,19.2,3.94,10.77,10.8,18.27,21.84,21.84,7.62,2.47,22.83,1.2,32.64,1.2h345.36c9.52,0,21.5,1.16,28.56-1.68,9.62-3.87,16.81-10.77,20.4-20.64,1-2.75,1-5.81,1.68-8.88,1.51-7-3.39-16.61-5.76-20.16a33.36,33.36,0,0,0-19.2-13.92c-6.48-1.92-16.09-1-24-1H705.06Z" transform="translate(-602.97 -385.87)"/><path class="cls-2" d="M1324.26,429.36c-1,.62-2.76.16-4.08.48a56,56,0,0,0-8.64,2.64c-10.61,4.6-18.1,14.17-21.84,25.68l-1.44,7c-1.14,5.15,0,11.88,1.2,15.84,4,13.52,9,19.54,19.92,26.16a38.75,38.75,0,0,0,11,4.08l4.56.24a8.89,8.89,0,0,0,3.12.24c3.9-.84,7.74-.81,11-2.16a40.89,40.89,0,0,0,22.56-21.84,57,57,0,0,0,2.64-8.64c1.66-6.63.54-15.5-1.2-20.88-4.5-13.89-13-23.16-26.88-27.6C1332.76,429.44,1328.67,429.35,1324.26,429.36Z" transform="translate(-602.97 -385.87)"/><path class="cls-1" d="M617.94,575h962.64c8,0,17.83-.94,22.8,2.16,7.4,4.62,6.72,12.16,6.72,24v828.72c0,6.67.32,13.7-1,19.2-.73,3.15-.36,5.89-1.2,8.88-3.81,13.54-7.38,25.81-13.92,36.48-4.63,7.55-10.17,14-15.36,20.88l-3.36,3.12a90.18,90.18,0,0,1-10.08,9.12c-8.09,6-16.33,12.24-26.16,16.56-8.9,3.91-18.38,6.22-28.8,8.88-3,.76-5.75.26-8.88,1-4.81,1.07-10.89.72-16.56.72H718.5c-5.23,0-11.33.53-15.84-.48-4.26-1-8.28-.37-12.24-1.44-12.54-3.39-23.83-6.89-33.6-13-5.8-3.6-11-8-16.32-12l-2.64-2.88a52.08,52.08,0,0,1-6-6.24c-.78-1-2.1-1.84-2.88-2.88-3.13-4.18-6.34-8.49-9.12-13-6.77-10.88-10.2-23.29-13.68-37.68l-.48-5.52c-1.78-8-.72-19.83-.72-29V596.88c0-4.85-.27-9.85,1.2-13.2a16,16,0,0,1,7.44-7.44C614.89,575.68,616.76,575.79,617.94,575Z" transform="translate(-602.97 -385.87)"/><path class="cls-2" d="M1095.78,718.08c-2.08,1.24-8.22-.38-11,.24s-6.45-.22-9.6.48L1054,720.72l-22.08,3.36c-4.88,1.26-10.13,1.7-15.12,3.12-14.43,4.1-29.25,7-42.48,12.48-21.65,8.91-42.55,17.46-61.44,29-15.27,9.37-29.39,19.75-43.44,30.24-5.21,3.89-9.67,8.79-14.88,12.72-2.11,1.59-3.66,4.17-5.76,5.76-3.41,2.58-6.13,5.88-9.12,8.88-5.22,5.22-10.64,10.38-15.12,16.32-.84,1.12-2.27,2-3.12,3.12-4.62,6.13-9.92,11.79-14.4,18-9.95,13.82-18.78,28.33-27.84,43.2-1.38,2.26-2,4.69-3.36,7-7.14,11.76-12.28,25.64-17.76,38.88-6.46,15.62-10.05,32.66-14.88,49.92l-4.08,21.6-2.88,23c-.66,3-.11,6.13-.72,8.88l-.48,14.88c-.63,3-.24,7.19-.24,10.56s-.38,7.45.24,10.32c.82,3.76-.26,7.87.48,11.28v3.6l1.68,18c1,4.45.78,9.35,1.92,13.92.78,3.1.83,6.54,1.68,9.84,2.35,9.11,3.71,18.8,6.48,27.36,1.92,5.93,2.87,11.51,4.8,17.28,4.3,12.88,9.1,25.41,14.4,37.44a324.2,324.2,0,0,0,22.56,41.76c24.17,38.3,53,71.75,89,98.16,20.2,14.81,41.17,29.11,65.52,39.84,5.62,2.48,11.53,5.43,17.28,7.92,6.27,2.72,12.92,4.63,19.2,7.2,2.27.93,4.33,1.12,6.72,1.92,8.67,2.89,18.17,5.33,27.36,7.92,10.7,3,22.15,3.6,33.36,6.24,3.94.93,7.72.3,11.76,1.2,5.4,1.2,11.92.45,17.52,1.68,1.41.31,3.45,0,4.56.24h6.48c3.89.83,9.34.24,13.68.24h7c3.38-.75,7.75.3,11.28-.48,2.09-.46,4.63,0,7-.48l18.72-1.92,21.12-3.36c4.09-1.06,8.49-1.44,12.72-2.64,11.11-3.16,22.22-5.56,32.88-9.12,103.4-34.55,179.8-108.39,221.52-204.72,6.48-15,10.81-31,16.08-47.28,2.65-8.19,3.61-17,5.76-25.44,2.08-8.14,2-16.9,3.84-25.2.7-3.07.33-6.28,1-9.12,1-4.35,0-9,1-13.2v-4.8c.45-2.11-.27-5.27.24-7.68a57,57,0,0,0,0-16.08c-.86-4,.33-8.77-.48-12.48l-.48-10.32-2.88-24.48c-2.13-8.74-2.62-17.89-5-26.4-5.07-17.82-9.38-35.26-16.08-51.12-3.68-8.7-6.86-17.19-11-25.2l-2.4-5.52c-4.06-6.68-7.19-14-11.28-20.64-6.72-11-13.81-21.55-21.12-31.92-6.37-9-14.25-16.91-20.88-25.68-2.31-3.06-5.86-5.36-8.16-8.4a66.39,66.39,0,0,0-6.48-6.72,63.71,63.71,0,0,0-6.48-6.24c-2.28-1.72-4-4.51-6.24-6.24-6.91-5.23-12.93-11.66-19.92-16.8-11.23-8.27-22.59-16.45-34.56-24-5.61-3.54-11.54-6.11-17.28-9.6-12.07-7.33-26-13.1-39.6-18.72-3.09-1.28-6-1.84-9.12-3.12-7.67-3.15-16.3-5.48-24.48-8.16-2.47-.81-4.69-.87-7.2-1.68-6.14-2-13.18-3.06-19.68-4.8-2.19-.59-4-.39-6.24-1-5.07-1.29-11-1.66-16.32-2.88l-5.76-.48c-3.44-.78-7.74-.66-11.28-1.44h-2.88c-1.94-.42-4.75-.29-6.72-.72h-4.08C1111.75,717.58,1102.06,718.11,1095.78,718.08Z" transform="translate(-602.97 -385.87)"/><path class="cls-1" d="M1090.74,769c4.74-.06,10.84-.7,15.12.24,2.17.48,5.09-.17,7,.24,2.77.61,5.73-.05,8.16.48h3.12c3.67.82,8.2.62,11.76,1.44,5,1.16,10.22,1,14.88,2.16l5.52.72c6.07,1.57,12.7,2.57,18.48,4.32,9.17,2.78,18.13,4.53,26.4,7.92,3.2,1.31,6.21,1.81,9.36,3.12,11.29,4.68,23.09,9.25,33.12,15.36,1.09.66,2.27.78,3.36,1.44,5,3.06,10.34,5.72,15.36,8.88,9.09,5.72,17.83,12,26.4,18.24,6.45,4.73,12.1,10.54,18.48,15.36,2.2,1.66,3.81,4.34,6,6a71.71,71.71,0,0,1,12,12l3.36,3.12c3.17,4.19,6.91,7.77,10.08,12,1.25,1.67,3.08,3.11,4.32,4.8,4.88,6.63,9.9,13.17,14.64,19.92,12.53,17.84,22.45,38.28,31.44,59.52,6.3,14.9,10,31.13,14.64,47.76l3.6,19.2,2.4,19.68c.43,1.95.1,4,.48,5.76l.24,7.92c.37,1.72-.19,4.45.24,6.48.7,3.28.71,14,0,17.28v6.24l-1.44,18.72c-.7,3.09-.42,6.54-1.2,9.84l-3.84,21.84c-1.64,5.81-2.43,12-4.32,17.76-4.47,13.71-8.41,27.21-13.92,39.84-36.9,84.53-103.15,145.41-194.4,175.68-11,3.66-22.79,5.63-34.56,8.64-5.87,1.5-12.15,1.52-18,2.88l-19.68,1.92c-3,.66-6.35-.13-9.12.48H1097c-6.46,0-14.07.51-19.68-.72-3-.67-6.18-.12-8.88-.72-3.76-.83-7.16-.1-10.8-1-9.9-2.33-20.07-2.59-29.52-5.28-8.46-2.41-17.31-4.32-25.2-7.2-1.85-.67-3.5-.71-5.28-1.44-6.48-2.66-13.25-4.65-19.68-7.44-4-1.75-8.28-4-12.24-5.76a281.08,281.08,0,0,1-48-27.6c-4.12-2.89-8-6.4-12-9.36-6.08-4.47-11.32-9.66-17.28-14.16-2.47-1.87-4.26-4.86-6.72-6.72a71.93,71.93,0,0,1-12.72-13c-1.32-1.75-3.48-3-4.8-4.8-4.07-5.39-9-10.18-13-15.6-14.37-19.54-28.06-40.32-38.4-63.84-4.8-10.92-9.07-22.36-13-34.08-1.49-4.5-2.1-8.82-3.6-13.44-3-9.39-4.27-20-6.72-30.24-1-4-.8-8.16-1.68-12l-1.44-14.4v-3.6c-.63-2.95.22-6.53-.48-9.84-.64-3-.24-7.35-.24-10.8,0-3.22-.37-7.28.24-10.08l.24-9.84c.43-1.93,0-4.29.48-6.48L789.3,1033l3.6-19.2c4.15-14.72,7.18-29.37,12.72-42.72,6.3-15.19,12.44-30.45,20.64-43.92s17-26.36,26.16-38.88c3.88-5.29,8.75-9.87,12.72-15.12,1.46-1.93,3.83-3.36,5.28-5.28,2.18-2.89,4.91-5.15,7.44-7.68,3.2-3.2,6.19-6.6,9.84-9.36l2.16-2.4c3.54-2.68,6.56-6,10.08-8.64,11.42-8.54,22.75-17.21,35-25,16.6-10.47,35.07-18.53,54.24-26.4,14.69-6,30.88-9.07,47.28-13.44l18.48-3.12,17.52-1.92c2.26-.5,4.71,0,6.72-.48C1081.69,768.9,1089.2,769.93,1090.74,769Z" transform="translate(-602.97 -385.87)"/><path class="cls-2" d="M1088.34,824.64c-1.69,1-6.36,0-8.64.48-7,1.57-14.49.72-21.36,2.4l-17.52,3.36c-12.43,3.54-24.71,6.35-36,11-57.35,23.79-97.77,59.7-128.64,109.92-8.12,13.21-14,28.08-20.16,43.2-4.53,11-6.58,23.35-9.84,35.52-1.23,4.57-1.32,9.43-2.4,13.92l-1.92,17.76c-.6,2.68.07,5.69-.48,8.16v10.08c-.32,1.52,0,3.13,0,5,0,5.33-.31,11,.72,15.6l1,12.24c.74,3.18.61,6.71,1.44,10.08,2,8.21,3.06,16.91,5.52,24.48,1.05,3.24,1.34,6.17,2.4,9.36,3.24,9.7,6.57,19.25,10.56,28.32,25.32,57.57,72.24,105,129.84,130.32,9.63,4.23,19.9,8.25,30.48,11.76,6.61,2.19,13.61,3.38,20.4,5.28,7.92,2.21,16.46,2.19,24.72,4.08l7.2.48c5.27,1.15,11.47.88,17.52,1,2.63,0,6.3.57,8.88,0h8.16c1-.23,3,.06,4.32-.24l17.52-1.68c4.4-1,9.2-1,13.68-2.16,11-2.86,21.88-4.72,32.16-8.16,71.82-24,127-75.26,156.24-141.84,5.06-11.54,8.63-23.84,12.72-36.48,2.26-7,3-14.61,4.8-21.84l2.64-19.68c.44-2,.1-4.05.48-5.76l.24-8.4c.64-3,.24-7.35.24-10.8,0-3.29.39-7.46-.24-10.32l-.24-8.64-2.16-19.44c-1.7-7-2.14-14.3-4.08-21.12-3.83-13.45-7.57-26.53-12.72-38.4C1307,917.2,1261,871.15,1194.18,842.88c-12.66-5.36-26.41-8.53-40.56-12.48-6.6-1.84-13.65-2-20.4-3.6-3.56-.83-6.89-.15-10.56-1-2.83-.63-6.26-.05-9.36-.72C1106.7,823.68,1095.92,824.66,1088.34,824.64Z" transform="translate(-602.97 -385.87)"/><path class="cls-1" d="M875.22,1041.12c1.55.55,4.46,4.6,5.52,6a19.67,19.67,0,0,0,3.84,3.36l2.16,2.4c2.76,2.09,5.35,4.5,8.16,6.48,8.59,6.05,18.43,10.32,29.52,13.92,4,1.3,8.34,1.63,12.48,2.64,2.75.67,5.25.08,8.16.72s6.75.48,10.32.48c8.76,0,17.22-.17,24.48-1.92,4.2-1,8-.74,12-1.92,1-.29,1.24-1,1.92-1.44a18.46,18.46,0,0,1,5-2.4c6.8-2.08,20.73.31,26.4,2.16,8.13,2.65,16.31,4.73,24,7.92,12.37,5.13,24.4,10.52,36.48,15.84,1.58.69,3.22,2,4.8,2.64a15.49,15.49,0,0,1,2.64,1l2.4,2.64c1.29,1,2.75,2.05,4.08,2.88,3.4,2.11,7.73,3.49,11.76,4.8,10.82,3.51,25.14,4.08,39.12,4.08,5.82,0,13.15.65,18.24-.48h4.56c5-1.12,11-.34,15.84-1.44l5.28-.24c3.52-.8,7.81-.64,11.28-1.44l4.08-.24c1.58-.43,2.62-1.64,3.84-2.4a54.62,54.62,0,0,1,6.48-3.36c4.7-2.06,10-3.21,15.36-4.56,6.38-1.6,20.3-1.47,26.64,0l5,.48c5.1,1.29,10.42,1.75,15.36,3.36,11.4,3.72,22.36,7.5,32.64,12,5.58,2.44,10.89,4.73,16.08,7.44,1.48.77,4.5,1.21,4.8,3.12-1.12,1.88-.6,4.88-1.2,7.2l-3.36,15.36c-2.06,6.31-3.26,13.11-5.76,19.2-3.26,7.92-6.21,15.84-9.6,23.52-6.43,14.58-15.53,27.51-24.24,39.84-14.91,21.1-34,39.14-55.2,54-7.47,5.25-15.62,9.59-23.52,14.4-2,1.21-4.16,1.8-6.24,2.88-8.05,4.18-16.91,7.68-25.68,11.28-10.92,4.48-23.12,6.48-35.28,9.6-4.43,1.14-9.1,1.14-13.44,2.16l-17.76,1.68h-5.28c-3.18.68-13.63.7-16.8,0-1.64-.36-3.94.06-5.28-.24L1078,1326c-6.8-1.54-14-1.16-20.64-2.88l-19-4.32c-8.48-2.77-17.16-5.33-25-8.64-6.49-2.76-13.05-4.71-19-8.16-9-5.23-18.3-9.75-26.64-15.6-21.62-15.15-40.85-32.78-56.4-54-4.72-6.45-9.57-13-13.92-19.92-2.74-4.34-4.5-9-7.2-13.44a59.92,59.92,0,0,1-3.6-6.48c-4-9.09-7.41-18-11-27.84-2.94-7.93-4.78-16.81-7.2-25.44-1.19-4.26-1.38-8.77-2.4-13-1.24-5.13-.52-10.5-1.68-15.84-1.1-5.08-1-11.24-1-17V1086c2.08-8.9,3-18,5.76-26.4C871.15,1053.67,873.8,1047,875.22,1041.12Z" transform="translate(-602.97 -385.87)"/><path class="cls-1" d="M699.54,1589H833v38.4H699.54Z" transform="translate(-602.97 -385.87)"/><path class="cls-1" d="M1373.46,1589h133.68v38.4H1373.46Z" transform="translate(-602.97 -385.87)"/></svg>