<?xml version="1.0" encoding="utf-8"?>
<!-- Svg Vector Icons : http://www.onlinewebfonts.com/icon -->
<!DOCTYPE svg PUBLIC "-//W3C//DTD SVG 1.1//EN" "http://www.w3.org/Graphics/SVG/1.1/DTD/svg11.dtd">
<svg version="1.1" xmlns="http://www.w3.org/2000/svg" xmlns:xlink="http://www.w3.org/1999/xlink" x="0px" y="0px" viewBox="0 0 1000 1000" enable-background="new 0 0 1000 1000" xml:space="preserve">
<metadata> Svg Vector Icons : http://www.onlinewebfonts.com/icon </metadata>
<g><path d="M867.5,941h-735C65,941,10,886,10,818.5v-637C10,113.9,65,59,132.5,59h735C935,59,990,113.9,990,181.5v637C990,886,935,941,867.5,941L867.5,941z M941,181.5c0-40.5-33-73.5-73.5-73.5h-735C92,108,59,141,59,181.5v637C59,859,92,892,132.5,892h735c40.5,0,73.5-33,73.5-73.5V181.5L941,181.5z M843,818.5H157c-13.5,0-24.5-11-24.5-24.5v-49c0-5.7,2-11.2,5.6-15.6C149.2,716,249.2,598,342.3,598c48.1,0,79.1,19.2,109.1,37.9c28.2,17.6,54.9,35.6,98.5,35.6h0c32,0,50.3-26.7,80.1-73.8c37.6-59.5,89-141,207-170.5c7.3-1.9,15.1-0.2,21,4.4c5.9,4.6,9.4,11.8,9.4,19.3v343C867.5,807.5,856.5,818.5,843,818.5L843,818.5z M818.5,484.3c-77.6,29.6-114.3,87.7-147.1,139.6c-31.4,49.7-61,96.7-119.7,96.7l-3.6-0.1c-56.7-1.9-91.8-23.7-122.7-42.9c-26.3-16.4-49.1-30.5-83.2-30.5c-55.8,0-130.2,71.9-160.8,107v15.5h637V484.3L818.5,484.3L818.5,484.3z M377.5,500c-54.1,0-98-44-98-98c0-54.1,43.9-98,98-98c54,0,98,43.9,98,98C475.5,456,431.5,500,377.5,500L377.5,500z M377.5,353c-27,0-49,22-49,49c0,27,22,49,49,49s49-22,49-49C426.5,375,404.5,353,377.5,353L377.5,353z"/></g>
</svg>